<?xml version="1.0" encoding="UTF-8"?>
<svg id="Ebene_4" data-name="Ebene 4" xmlns="http://www.w3.org/2000/svg" viewBox="30.8 29.59 360.6 61.46">
  <defs>
    <style>
      .cls-1, .cls-2 {
        fill-rule: evenodd;
      }

      .cls-1, .cls-3 {
        fill: #8b2b2c;
      }

      .cls-2, .cls-4 {
        fill: #fff;
      }

      .cls-5 {
        fill: #e45305;
      }

      .cls-6 {
        fill: #e35205;
      }
    </style>
  </defs>
  <g>
    <rect class="cls-3" x="30.8" y="29.59" width="61.69" height="61.39" rx="5.43" ry="5.43"/>
    <g>
      <path class="cls-4" d="M82.06,41.75c-2.14,0-3.89-1.74-3.89-3.89s1.74-3.89,3.89-3.89,3.89,1.74,3.89,3.89-1.74,3.89-3.89,3.89M82.06,34.51c-1.85,0-3.35,1.5-3.35,3.35s1.5,3.35,3.35,3.35,3.35-1.5,3.35-3.35-1.5-3.35-3.35-3.35"/>
      <path class="cls-1" d="M81.1,37.53h1.15c.24,0,.43-.03.57-.08.14-.05.24-.13.31-.24.07-.11.11-.23.11-.36,0-.19-.07-.35-.21-.47-.14-.12-.36-.18-.66-.18h-1.27v1.33ZM80.57,39.78v-4.03h1.79c.36,0,.63.04.82.11.19.07.34.2.45.38.11.18.17.39.17.61,0,.29-.09.53-.28.72-.18.2-.47.32-.86.37.14.07.25.13.32.2.16.14.3.32.44.54l.7,1.1h-.67l-.53-.84c-.16-.24-.28-.43-.39-.55-.1-.13-.19-.22-.27-.27-.08-.05-.16-.09-.24-.11-.06-.01-.16-.02-.3-.02h-.62v1.79h-.53Z"/>
      <path class="cls-4" d="M81.1,37.53h1.15c.24,0,.43-.03.57-.08.14-.05.24-.13.31-.24.07-.11.11-.23.11-.36,0-.19-.07-.35-.21-.47-.14-.12-.36-.18-.66-.18h-1.27v1.33ZM80.57,39.78v-4.03h1.79c.36,0,.63.04.82.11.19.07.34.2.45.38.11.18.17.39.17.61,0,.29-.09.53-.28.72-.18.2-.47.32-.86.37.14.07.25.13.32.2.16.14.3.32.44.54l.7,1.1h-.67l-.53-.84c-.16-.24-.28-.43-.39-.55-.1-.13-.19-.22-.27-.27-.08-.05-.16-.09-.24-.11-.06-.01-.16-.02-.3-.02h-.62v1.79h-.53Z"/>
    </g>
    <g>
      <path class="cls-2" d="M50.29,79.22v-1.29h5.78v-4.51h-5.78v-1.29h5.78v-4.51h-8.98c-1.11,0-2.01.9-2.01,2.01v12.07c0,1.11.9,2.01,2.01,2.01h8.98v-4.5h-5.78Z"/>
      <path class="cls-2" d="M63.57,73.41v-1.29h5.78v-4.51h-8.98c-1.11,0-2.01.9-2.01,2.01v6.28c0,1.11.9,2.01,2.01,2.01h3.8v1.29h-5.81v4.5h8.98c1.11,0,2.01-.9,2.01-2.01v-6.28c0-1.11-.9-2.01-2.01-2.01h-3.76Z"/>
      <polygon class="cls-2" points="52.26 65.08 56.28 65.08 56.28 61.33 68.69 54.26 80.89 61.32 80.89 83.72 80.89 83.73 84.91 83.73 84.91 83.72 84.91 59.07 68.69 49.58 68.69 49.58 52.25 58.98 52.26 65.08"/>
      <polygon class="cls-2" points="65.61 39.92 61.54 37.54 38.17 51.2 38.17 83.72 42.2 83.72 42.2 53.45 65.61 39.92"/>
      <polygon class="cls-2" points="68.69 41.71 68.69 41.71 45.21 55.14 45.21 65.08 49.24 65.08 49.24 57.39 68.69 46.39 84.91 55.78 84.91 51.2 68.69 41.71"/>
    </g>
  </g>
  <g>
    <path class="cls-3" d="M113.09,90.88v-1.49h.99v-6.35h-.99v-1.49h4.19v1.49h-1.01v2.38h3.94v-2.38h-1.02v-1.49h4.21v1.49h-.99v6.35h.99v1.49h-4.21v-1.49h1.02v-2.51h-3.94v2.51h1.01v1.49h-4.19Z"/>
    <path class="cls-3" d="M132.06,91.04c-1.04,0-1.96-.21-2.74-.62-.78-.41-1.38-.98-1.81-1.71-.43-.73-.64-1.57-.64-2.5s.21-1.79.64-2.51,1.03-1.29,1.81-1.7c.78-.41,1.69-.62,2.74-.62s1.96.21,2.73.62c.77.41,1.38.98,1.81,1.7.43.73.65,1.56.65,2.51s-.22,1.77-.65,2.5c-.43.73-1.03,1.3-1.81,1.71-.77.41-1.68.62-2.73.62ZM132.06,89.32c.59,0,1.1-.13,1.54-.38.44-.25.78-.61,1.02-1.07.24-.46.36-1.01.36-1.64s-.12-1.19-.36-1.66c-.24-.46-.58-.82-1.02-1.08s-.95-.38-1.54-.38-1.11.13-1.55.38-.77.62-1.01,1.08-.35,1.02-.35,1.66.12,1.18.35,1.64.57.82,1.01,1.07c.44.25.96.38,1.55.38Z"/>
    <path class="cls-3" d="M140.73,90.88v-1.49h.99v-6.35h-.99v-1.49h4.19v1.49h-1.01v6.35h3.12v-2.37h1.52v3.86h-7.82Z"/>
    <path class="cls-3" d="M152.17,90.88v-1.14l5.07-6.7h-3.41v2.08h-1.5v-3.57h7.73v1.14l-5.12,6.7h3.9v-2.42h1.5v3.9h-8.18Z"/>
    <path class="cls-3" d="M164.09,90.88v-1.49h.99v-6.35h-.99v-1.49h5.98c.93,0,1.64.2,2.14.58.5.39.75.97.75,1.74,0,.41-.08.76-.26,1.06-.17.3-.4.54-.69.72-.29.18-.61.29-.98.34l-.08-.13c.55.02,1.01.14,1.38.35.36.21.64.5.82.86s.28.77.28,1.24c0,.85-.27,1.49-.8,1.92-.53.43-1.34.64-2.42.64h-6.14ZM167.28,85.27h2.14c.43,0,.75-.1.97-.3.22-.2.33-.47.33-.82,0-.38-.11-.66-.34-.84-.22-.18-.59-.26-1.1-.26h-2v2.22ZM167.28,89.4h2.32c.55,0,.96-.11,1.22-.34.26-.22.38-.55.38-.98s-.13-.74-.38-.98c-.26-.24-.66-.35-1.22-.35h-2.32v2.64Z"/>
    <path class="cls-3" d="M176.76,90.88v-1.49h.96l2.42-6.35h-1.04v-1.49h6.16v1.49h-1.04l2.43,6.35h.94v1.49h-4.16v-1.49h1.02l-.88-2.42.67.58h-4.13l.61-.58-.86,2.42h1.02v1.49h-4.13ZM180.83,86.66l-.34-.53h3.31l-.3.53-1.3-3.62h-.06l-1.31,3.62Z"/>
    <path class="cls-3" d="M195.34,91.04c-.88,0-1.63-.16-2.26-.47-.63-.31-1.11-.77-1.44-1.36-.33-.59-.5-1.31-.5-2.15v-4.02h-1.01v-1.49h4.19v1.49h-.99v4c0,.51.08.94.26,1.27s.42.58.74.74c.32.16.7.24,1.15.24s.83-.08,1.16-.24c.33-.16.57-.41.74-.74s.26-.76.26-1.27v-4h-1.01v-1.49h3.89v1.49h-1.01v4.02c0,.88-.17,1.61-.5,2.2-.33.59-.81,1.04-1.43,1.34-.62.3-1.37.45-2.25.45Z"/>
    <path class="cls-3" d="M214.77,91.04c-.8,0-1.46-.12-1.98-.37s-.9-.57-1.14-.97-.36-.84-.36-1.32c0-.55.18-1.06.54-1.5s.92-.84,1.67-1.17l.21.78-.42-.45c-.37-.41-.66-.8-.85-1.18s-.29-.77-.29-1.18c0-.68.24-1.24.73-1.66.49-.43,1.15-.64,2.01-.64.92,0,1.59.21,2.03.63.44.42.66.92.66,1.51,0,.26-.06.52-.18.8s-.32.55-.62.82c-.29.27-.71.54-1.24.79l1.84,2.03c.14-.32.25-.66.32-1.02.08-.36.11-.81.11-1.34v-.21h2.3v1.49h-.98c-.04.51-.15.98-.32,1.41-.17.43-.4.8-.69,1.12l-.02-.64.58.61h1.42v1.49h-2.42l-.53-.58c-.35.24-.73.42-1.14.54-.41.13-.83.19-1.27.19ZM213.23,88.18c0,.43.15.76.46,1,.31.24.77.36,1.38.36.22,0,.43-.02.63-.07s.37-.13.5-.25l-2.16-2.34c-.31.17-.52.37-.64.61s-.18.46-.18.69ZM213.92,83.57c0,.23.06.46.18.67.12.21.31.46.57.74l.59.67-.69-.53c.33-.18.59-.35.77-.52.18-.17.31-.33.4-.5.08-.17.13-.35.13-.54,0-.29-.08-.52-.24-.69-.16-.17-.41-.26-.75-.26-.3,0-.53.08-.7.26-.17.17-.26.41-.26.7Z"/>
    <path class="cls-3" d="M230.88,90.88v-1.49h.99v-6.35h-.99v-1.49h5.25c1.14,0,2.01.23,2.62.7s.9,1.17.9,2.12-.3,1.67-.9,2.13c-.6.46-1.44.69-2.5.69h-.3l1.7-.74,1.81,2.94h1.12v1.49h-2.77l-2.26-3.7h-.77v-1.49h.98c.58,0,.99-.12,1.26-.35.26-.23.39-.56.39-.98s-.12-.75-.37-.98c-.25-.23-.67-.34-1.28-.34h-1.68v6.35h1.01v1.49h-4.19Z"/>
    <path class="cls-3" d="M243.98,90.88v-1.49h.99v-6.35h-.99v-1.49h8.32v3.14h-1.42v-1.65h-3.71v2.37h1.71v-.9h1.25v3.36h-1.25v-.98h-1.71v2.5h4v-1.73h1.42v3.22h-8.61Z"/>
    <path class="cls-3" d="M260.87,91.04c-.78,0-1.43-.12-1.94-.38-.52-.25-.92-.63-1.21-1.13l.38.19v1.15h-1.46v-3.15h1.39c.05.61.25,1.07.6,1.38s.93.46,1.75.46c.62,0,1.06-.11,1.34-.34.27-.22.41-.49.41-.8,0-.28-.1-.5-.3-.67-.2-.17-.54-.3-1.01-.4l-1.73-.35c-.79-.16-1.41-.47-1.85-.94-.44-.46-.66-1.05-.66-1.77,0-.55.13-1.05.4-1.49s.66-.78,1.17-1.04c.51-.26,1.13-.38,1.86-.38.67,0,1.25.12,1.72.35s.84.6,1.1,1.09h-.38v-1.28h1.47v2.78h-1.41c-.05-.44-.25-.79-.59-1.06-.34-.27-.83-.41-1.47-.41-.36,0-.66.05-.9.15-.24.1-.41.23-.52.4-.11.17-.16.34-.16.54,0,.26.09.47.27.64.18.17.49.3.93.38l1.73.35c.84.18,1.49.49,1.94.92s.67,1.04.67,1.82c0,.58-.14,1.09-.42,1.54-.28.45-.68.8-1.21,1.06-.53.26-1.16.38-1.9.38Z"/>
    <path class="cls-3" d="M269.89,90.88v-1.49h1.26v-6.35h-2.06v2.08h-1.49v-3.57h9.28v3.57h-1.49v-2.08h-2.05v6.35h1.25v1.49h-4.7Z"/>
    <path class="cls-3" d="M278.95,90.88v-1.49h.96l2.42-6.35h-1.04v-1.49h6.16v1.49h-1.04l2.43,6.35h.94v1.49h-4.16v-1.49h1.02l-.88-2.42.67.58h-4.13l.61-.58-.86,2.42h1.02v1.49h-4.13ZM283.01,86.66l-.34-.53h3.31l-.3.53-1.3-3.62h-.06l-1.31,3.62Z"/>
    <path class="cls-3" d="M297.53,91.04c-.88,0-1.63-.16-2.26-.47-.63-.31-1.11-.77-1.44-1.36-.33-.59-.5-1.31-.5-2.15v-4.02h-1.01v-1.49h4.19v1.49h-.99v4c0,.51.08.94.26,1.27s.42.58.74.74c.32.16.7.24,1.15.24s.83-.08,1.16-.24c.33-.16.57-.41.74-.74s.26-.76.26-1.27v-4h-1.01v-1.49h3.89v1.49h-1.01v4.02c0,.88-.17,1.61-.5,2.2-.33.59-.81,1.04-1.43,1.34-.62.3-1.37.45-2.25.45Z"/>
    <path class="cls-3" d="M306.26,90.88v-1.49h.99v-6.35h-.99v-1.49h5.25c1.14,0,2.01.23,2.62.7s.9,1.17.9,2.12-.3,1.67-.9,2.13c-.6.46-1.44.69-2.5.69h-.3l1.7-.74,1.81,2.94h1.12v1.49h-2.77l-2.26-3.7h-.77v-1.49h.98c.58,0,.99-.12,1.26-.35.26-.23.39-.56.39-.98s-.12-.75-.37-.98c-.25-.23-.67-.34-1.28-.34h-1.68v6.35h1.01v1.49h-4.19Z"/>
    <path class="cls-3" d="M319.36,90.88v-1.49h.99v-6.35h-.99v-1.49h4.19v1.49h-1.01v6.35h1.01v1.49h-4.19Z"/>
    <path class="cls-3" d="M327.29,90.88v-1.49h.99v-6.35h-.99v-1.49h8.32v3.14h-1.42v-1.65h-3.71v2.37h1.71v-.9h1.25v3.36h-1.25v-.98h-1.71v2.5h4v-1.73h1.42v3.22h-8.61Z"/>
    <path class="cls-3" d="M339.66,90.88v-1.49h.99v-6.35h-.99v-1.49h5.25c1.14,0,2.01.23,2.62.7s.9,1.17.9,2.12-.3,1.67-.9,2.13c-.6.46-1.44.69-2.5.69h-.3l1.7-.74,1.81,2.94h1.12v1.49h-2.77l-2.26-3.7h-.77v-1.49h.98c.58,0,.99-.12,1.26-.35.26-.23.39-.56.39-.98s-.12-.75-.37-.98c-.25-.23-.67-.34-1.28-.34h-1.68v6.35h1.01v1.49h-4.19Z"/>
    <path class="cls-3" d="M357.4,91.04c-.88,0-1.63-.16-2.26-.47-.63-.31-1.11-.77-1.44-1.36-.33-.59-.5-1.31-.5-2.15v-4.02h-1.01v-1.49h4.19v1.49h-.99v4c0,.51.08.94.26,1.27s.42.58.74.74c.32.16.7.24,1.15.24s.83-.08,1.16-.24c.33-.16.57-.41.74-.74s.26-.76.26-1.27v-4h-1.01v-1.49h3.89v1.49h-1.01v4.02c0,.88-.17,1.61-.5,2.2-.33.59-.81,1.04-1.43,1.34-.62.3-1.37.45-2.25.45Z"/>
    <path class="cls-3" d="M366.13,90.88v-1.49h.99v-6.35h-.99v-1.49h3.42l4.06,5.98v-4.5h-.99v-1.49h3.82v1.49h-.99v7.84h-2.3l-4.19-6.3v4.82h1.01v1.49h-3.84Z"/>
    <path class="cls-3" d="M384.94,91.04c-1.04,0-1.93-.21-2.7-.62-.76-.41-1.35-.98-1.78-1.7-.42-.72-.63-1.55-.63-2.48s.21-1.81.62-2.54,1-1.3,1.74-1.71c.75-.41,1.61-.62,2.59-.62s1.75.19,2.4.58c.65.38,1.1.98,1.34,1.78l-.54-.35v-1.82h1.46v3.23h-1.39c-.26-.57-.62-.99-1.1-1.26-.48-.28-1.06-.42-1.74-.42s-1.21.13-1.67.39c-.46.26-.82.62-1.06,1.09-.25.46-.37,1.01-.37,1.64s.12,1.16.35,1.62c.23.46.57.82,1.02,1.08.44.26.97.38,1.58.38.9,0,1.55-.25,1.97-.74s.6-1.24.56-2.26l.91,1.09h-2.46v-1.49h3.68v.42c0,1-.19,1.85-.58,2.55-.39.7-.94,1.23-1.66,1.6s-1.56.55-2.53.55Z"/>
  </g>
  <g>
    <path class="cls-6" d="M112.84,64.12V30.72h22.47v6.95h-14.57v5.8h12.92v6.95h-12.92v6.75h14.57v6.95h-22.47Z"/>
    <path class="cls-6" d="M147.87,64.72c-1.33,0-2.48-.48-3.45-1.45-.97-.97-1.45-2.12-1.45-3.45s.48-2.52,1.45-3.45c.97-.93,2.12-1.4,3.45-1.4s2.48.47,3.42,1.4c.95.93,1.43,2.08,1.43,3.45s-.48,2.48-1.43,3.45c-.95.97-2.09,1.45-3.42,1.45Z"/>
    <path class="cls-6" d="M172.28,64.72c-3.63,0-6.69-.74-9.18-2.23-2.48-1.48-4.24-3.56-5.27-6.22l7.2-2.6c.47,1.6,1.34,2.78,2.62,3.55,1.28.77,2.84,1.15,4.67,1.15.97,0,1.9-.11,2.8-.33.9-.22,1.65-.58,2.25-1.1.6-.52.9-1.21.9-2.08,0-1.17-.57-2.08-1.7-2.72-1.13-.65-2.6-1.14-4.4-1.48l-4.05-.8c-1.8-.37-3.47-.92-5.02-1.67-1.55-.75-2.79-1.75-3.73-3-.93-1.25-1.4-2.83-1.4-4.72,0-1.8.42-3.35,1.25-4.65.83-1.3,1.94-2.37,3.33-3.2,1.38-.83,2.91-1.46,4.57-1.88,1.67-.42,3.33-.62,5-.62,1.8,0,3.54.25,5.23.75,1.68.5,3.19,1.28,4.52,2.33s2.35,2.44,3.05,4.17l-7.15,2.6c-.43-1.13-1.21-2-2.33-2.6-1.12-.6-2.46-.9-4.03-.9s-2.81.27-3.82.82c-1.02.55-1.52,1.34-1.52,2.38,0,.83.35,1.55,1.05,2.15.7.6,1.62,1.02,2.75,1.25l4.5.9c1.37.27,2.75.61,4.15,1.02,1.4.42,2.69.97,3.88,1.65,1.18.68,2.14,1.59,2.88,2.72.73,1.13,1.1,2.57,1.1,4.3s-.41,3.34-1.22,4.73c-.82,1.38-1.9,2.54-3.25,3.47-1.35.93-2.86,1.64-4.53,2.12-1.67.48-3.37.73-5.1.73Z"/>
    <path class="cls-6" d="M227.29,64.12V30.72h7.9v12.75h12.63v-12.75h7.9v33.4h-7.9v-13.7h-12.63v13.7h-7.9Z"/>
    <path class="cls-6" d="M261.69,64.12l12.65-33.4h8.7l12.65,33.4h-8.6l-2-5.95h-12.8l-2,5.95h-8.6ZM274.44,51.77h8.5l-4.3-12.7-4.2,12.7Z"/>
    <path class="cls-6" d="M301.95,64.12V30.72h10.61c2.9,0,5.49.28,7.78.85,2.28.57,4.08,1.6,5.4,3.1s1.98,3.63,1.98,6.4c0,1.27-.23,2.53-.7,3.78s-1.28,2.39-2.42,3.42c-1.15,1.03-2.79,1.83-4.92,2.4l9.7,13.45h-9.15l-9.05-12.6h-1.32v12.6h-7.9ZM309.85,44.92h2.96c1.87,0,3.42-.24,4.67-.72,1.25-.48,1.88-1.49,1.88-3.03s-.62-2.59-1.88-3.07-2.81-.73-4.67-.73h-2.96v7.55Z"/>
    <path class="cls-6" d="M336.47,64.12V30.72h11.24c2.9,0,5.49.3,7.78.9,2.28.6,4.08,1.68,5.4,3.25,1.32,1.57,1.98,3.82,1.98,6.75s-.66,5.14-1.98,6.73-3.12,2.67-5.4,3.27c-2.28.6-4.88.9-7.78.9h-3.34v11.6h-7.9ZM344.37,45.97h3.59c1.23,0,2.34-.12,3.33-.35.98-.23,1.77-.67,2.35-1.3.58-.63.88-1.53.88-2.7s-.29-2.06-.88-2.67c-.58-.62-1.37-1.03-2.35-1.25-.98-.22-2.09-.33-3.33-.33h-3.59v8.6Z"/>
    <path class="cls-6" d="M369.4,64.12V30.72h22v6.95h-14.1v5.8h11.67v6.95h-11.67v13.7h-7.9Z"/>
  </g>
  <path class="cls-5" d="M214.32,54.48c-.77,1.43-1.82,2.41-3.17,2.94-1.35.53-2.66.8-3.92.8-2.37,0-4.36-.93-5.97-2.78-1.62-1.85-2.43-4.53-2.43-8.03,0-2.27.37-4.21,1.1-5.82.73-1.62,1.73-2.85,3-3.7,1.27-.85,2.67-1.28,4.2-1.28,1.37,0,2.68.29,3.95.88,1.26.58,2.26,1.55,2.99,2.91l6.04-4.09c-1.17-1.65-2.65-3.02-4.46-4.1-2.35-1.4-5.11-2.1-8.27-2.1-3.43,0-6.42.71-8.95,2.12-2.53,1.42-4.49,3.42-5.88,6-1.38,2.58-2.08,5.64-2.08,9.17s.67,6.6,2,9.2c1.33,2.6,3.25,4.6,5.75,6,2.5,1.4,5.48,2.1,8.95,2.1,3.17,0,5.97-.69,8.42-2.08,1.91-1.08,3.46-2.46,4.69-4.13l-5.97-4.04Z"/>
</svg>